<?xml version="1.0" encoding="utf-8"?>
<!-- Generator: Adobe Illustrator 26.5.0, SVG Export Plug-In . SVG Version: 6.00 Build 0)  -->
<svg version="1.1" id="Capa_1" xmlns="http://www.w3.org/2000/svg" xmlns:xlink="http://www.w3.org/1999/xlink" x="0px" y="0px"
	 viewBox="0 0 256 256" style="enable-background:new 0 0 256 256;" xml:space="preserve">
<style type="text/css">
	.st0{fill:url(#SVGID_1_);}
	.st1{fill:url(#SVGID_00000042719417466713460950000017378591497116022938_);}
</style>
<g>
	
		<linearGradient id="SVGID_1_" gradientUnits="userSpaceOnUse" x1="128" y1="2726.1792" x2="128" y2="3031.6492" gradientTransform="matrix(1 0 0 1 0 -2742)">
		<stop  offset="0" style="stop-color:#FFEEB6"/>
		<stop  offset="1" style="stop-color:#C69C60"/>
	</linearGradient>
	<path class="st0" d="M211.7,44.3C189.4,21.9,159.6,9.6,128,9.6S66.6,21.9,44.3,44.3C21.9,66.6,9.6,96.4,9.6,128
		s12.3,61.4,34.7,83.7c4.2,4.2,8.7,8.1,13.4,11.6c0.4,0.3,0.8,0.6,1.2,0.9c20,14.4,44,22.2,69.1,22.2s49.1-7.8,69.1-22.2
		c0.4-0.3,0.8-0.6,1.2-0.9c4.7-3.5,9.2-7.4,13.4-11.6c22.4-22.4,34.7-52.1,34.7-83.7S234.1,66.6,211.7,44.3z M166.7,219.5
		c-0.5,0.2-1.1,0.5-1.6,0.7c-11.5,4.6-24,7.2-37.1,7.2s-25.6-2.6-37.1-7.2c-7.4-3-14.4-6.9-20.8-11.5c-25.1-18-41.4-47.5-41.4-80.7
		c0-32.5,15.7-61.5,40-79.6v134.5l24-18l74.1-55.2L166.7,219.5L166.7,219.5z M190.7,205V63.4l-24,18.1l-74.1,56.2V35.2
		c5.2-2,10.5-3.5,16-4.6c6.2-1.2,12.7-1.9,19.3-1.9c6.2,0,12.2,0.6,18.1,1.7c46.2,8.5,81.2,49.1,81.2,97.7
		C227.3,159,213,186.8,190.7,205z"/>
	
		<linearGradient id="SVGID_00000055699167148848032150000005520410452870778798_" gradientUnits="userSpaceOnUse" x1="128" y1="2726.1792" x2="128" y2="3031.6492" gradientTransform="matrix(1 0 0 1 0 -2742)">
		<stop  offset="0" style="stop-color:#FFEEB6"/>
		<stop  offset="1" style="stop-color:#C69C60"/>
	</linearGradient>
	<path style="fill:url(#SVGID_00000055699167148848032150000005520410452870778798_);" d="M218.5,37.5C194.3,13.3,162.2,0,128,0
		S61.7,13.3,37.5,37.5S0,93.8,0,128s13.3,66.3,37.5,90.5S93.8,256,128,256s66.3-13.3,90.5-37.5S256,162.2,256,128
		S242.7,61.7,218.5,37.5z M128,250.3C60.6,250.3,5.7,195.4,5.7,128S60.6,5.7,128,5.7S250.3,60.6,250.3,128S195.4,250.3,128,250.3z"
		/>
</g>
</svg>
