<?xml version="1.0" encoding="utf-8"?>
<!-- Generator: Adobe Illustrator 26.5.0, SVG Export Plug-In . SVG Version: 6.00 Build 0)  -->
<svg version="1.1" id="Capa_1" xmlns="http://www.w3.org/2000/svg" xmlns:xlink="http://www.w3.org/1999/xlink" x="0px" y="0px"
	 viewBox="0 0 256 256" style="enable-background:new 0 0 256 256;" xml:space="preserve">
<style type="text/css">
	.st0{fill:url(#SVGID_1_);}
	.st1{fill:url(#SVGID_00000005953102802945781960000015145363984646111876_);}
	.st2{fill:url(#SVGID_00000155137757474764661830000017527038782521276340_);}
</style>
<g>
	
		<linearGradient id="SVGID_1_" gradientUnits="userSpaceOnUse" x1="128" y1="2726.1792" x2="128" y2="3031.6492" gradientTransform="matrix(1 0 0 1 0 -2742)">
		<stop  offset="0" style="stop-color:#FFEEB6"/>
		<stop  offset="1" style="stop-color:#C69C60"/>
	</linearGradient>
	<path class="st0" d="M211.7,44.3C189.4,21.9,159.6,9.6,128,9.6S66.6,21.9,44.3,44.3C21.9,66.6,9.6,96.4,9.6,128
		s12.3,61.4,34.7,83.7c4.2,4.2,8.7,8.1,13.4,11.6c0.4,0.3,0.8,0.6,1.2,0.9c20,14.4,44,22.2,69.1,22.2s49.1-7.8,69.1-22.2
		c0.4-0.3,0.8-0.6,1.2-0.9c4.7-3.5,9.2-7.4,13.4-11.6c22.4-22.4,34.7-52.1,34.7-83.7S234.1,66.6,211.7,44.3z M110.8,75.6
		c19.8,2.4,34.5,7.5,44.1,15.5c9.5,8,14.3,20.7,14.3,38.2c0,14.3-2.2,25.4-6.6,33.2c-4.4,7.8-11,13.5-19.6,17.1
		c-8.7,3.6-19.4,6.5-32.1,8.7L110.8,75.6L110.8,75.6z M85.8,217.9c-5.5-2.6-10.8-5.7-15.7-9.2c-25.1-18-41.4-47.5-41.4-80.7
		c0-39.7,23.4-74,57.1-89.9V217.9z M185.9,208.7c-6.4,4.6-13.4,8.5-20.8,11.5c-11.5,4.6-24,7.2-37.1,7.2c-5.9,0-11.6-0.5-17.2-1.5
		v-15.3c11-1.2,21.6-3.3,31.8-6.3s19.5-7.6,27.7-13.6c8.3-6,14.8-14,19.6-24.2c4.8-10.1,7.2-22.8,7.2-38.2
		c0-23.6-7.4-41.4-22.1-53.4c-14.7-12-36.2-19.7-64.3-23V30.2c5.6-1,11.3-1.5,17.2-1.5c6.2,0,12.2,0.6,18.1,1.7
		c46.2,8.5,81.2,49.1,81.2,97.7C227.3,161.2,211,190.6,185.9,208.7z"/>
	
		<linearGradient id="SVGID_00000108997547718304841090000015012592976237088154_" gradientUnits="userSpaceOnUse" x1="128" y1="2726.1792" x2="128" y2="3031.6492" gradientTransform="matrix(1 0 0 1 0 -2742)">
		<stop  offset="0" style="stop-color:#FFEEB6"/>
		<stop  offset="1" style="stop-color:#C69C60"/>
	</linearGradient>
	<path style="fill:url(#SVGID_00000108997547718304841090000015012592976237088154_);" d="M218.5,37.5C194.3,13.3,162.2,0,128,0
		S61.7,13.3,37.5,37.5S0,93.8,0,128s13.3,66.3,37.5,90.5S93.8,256,128,256s66.3-13.3,90.5-37.5S256,162.2,256,128
		S242.7,61.7,218.5,37.5z M128,250.3C60.6,250.3,5.7,195.4,5.7,128S60.6,5.7,128,5.7S250.3,60.6,250.3,128S195.4,250.3,128,250.3z"
		/>
	
		<linearGradient id="SVGID_00000030474179218433314520000004963569028092108182_" gradientUnits="userSpaceOnUse" x1="138.4" y1="2726.1792" x2="138.4" y2="3031.6492" gradientTransform="matrix(1 0 0 1 0 -2742)">
		<stop  offset="0" style="stop-color:#FFEEB6"/>
		<stop  offset="1" style="stop-color:#C69C60"/>
	</linearGradient>
	<path style="fill:url(#SVGID_00000030474179218433314520000004963569028092108182_);" d="M153.6,130.7c0-5.7-1.5-9.9-4.6-12.5
		c-3-2.7-6.5-4-10.5-4c-4.3,0-8,1.3-10.9,4s-4.4,6.8-4.4,12.5c0,5.5,1.5,9.6,4.4,12.4c2.9,2.8,6.6,4.1,10.9,4.1
		c3.9,0,7.4-1.4,10.5-4.1C152.1,140.3,153.6,136.2,153.6,130.7z"/>
</g>
</svg>
